# xmcd
#
# Track frame offsets:
#	150
#	17925
#	38777
#	52609
#	73093
#	91016
#	118157
#	126460
#	148138
#	162620
#	187832
#
# Disc length: 2699 seconds
#
# Revision: 1
# Processed by: cddbd v1.5.2PL0 Copyright (c) Steve Scherf et al.
# Submitted via: audiograbber 1.83.01
#
DISCID=990a890b
DTITLE=Chris Laterzo and Buffalo Robe - Juniper And Pinon
DYEAR=2009
DGENRE=Country
TTITLE0=Hacienda
TTITLE1=Red Dust
TTITLE2=Those Were The Days
TTITLE3=Juniper And Pinon
TTITLE4=Peculiar Fate
TTITLE5=Misfit Child
TTITLE6=Home On The Rance
TTITLE7=Holiday In
TTITLE8=Woman
TTITLE9=Croweded House Blues
TTITLE10=Señorita Sunshine
EXTD=
EXTT0=
EXTT1=
EXTT2=
EXTT3=
EXTT4=
EXTT5=
EXTT6=
EXTT7=
EXTT8=
EXTT9=
EXTT10=
PLAYORDER=
